<svg aria-hidden="true" style="position:absolute;width:0;height:0;overflow:hidden" xmlns="http://www.w3.org/2000/svg">
  <defs>
    <symbol id="icon-burger" viewBox="0 0 24 24">
      <path d="M3.5 17.5H24.5M3.5 10.5H24.5" stroke="#1B414B" stroke-width="2.5" stroke-linecap="round" stroke-linejoin="round"/>
    </symbol>
    <symbol id="icon-youtube" viewBox="0 0 24 24">
      <path d="m13.67 11.826-2.34-1.092c-.204-.095-.372.011-.372.237v2.056c0 .226.168.332.372.237l2.339-1.092c.205-.096.205-.252.001-.348zM12 2C6.477 2 2 6.477 2 12s4.477 10 10 10 10-4.477 10-10S17.523 2 12 2zm0 14.062c-5.119 0-5.208-.462-5.208-4.062S6.882 7.938 12 7.938c5.119 0 5.208.461 5.208 4.062s-.09 4.062-5.208 4.062z"/>
    </symbol>
    <symbol id="icon-facebook" viewBox="0 0 24 24">
      <path d="M22 12.025C22 6.491 17.52 2 12 2S2 6.491 2 12.025a10.03 10.03 0 0 0 8 9.825v-6.817H8v-3.007h2V9.52a3.508 3.508 0 0 1 3.5-3.509H16v3.008h-2c-.55 0-1 .451-1 1.003v2.005h3v3.007h-3v6.967c5.05-.501 9-4.772 9-9.975z"/>
    </symbol>
    <symbol id="icon-close" viewBox="0 0 24 24">
      <path fill="#055545" style="fill:var(--color1, #055545)" d="m18.857 6.738-1.595-1.595L12 10.405 6.738 5.143 5.143 6.738 10.405 12l-5.262 5.262 1.595 1.595L12 13.595l5.262 5.262 1.595-1.595L13.595 12l5.262-5.262z"/>
    </symbol>
    <symbol id="icon-cursor-pointer" viewBox="0 0 24 24">
      <path fill="#fbfbfb" style="fill:var(--color2, #fbfbfb)" d="m13.75 10.19.63.13 4.17 2.08c.7.23 1.16.92 1.1 1.66v.26l-.9 6.12c-.06.43-.25.83-.6 1.11-.31.3-.72.45-1.15.45h-6.88c-.49 0-.94-.18-1.27-.53L2.86 15.5l.9-1c.24-.25.62-.39.98-.37h.29L9 15V4.5a2 2 0 0 1 4 0v5.69h.75z"/>
    </symbol>
    <symbol id="icon-instagram" viewBox="0 0 24 24">
      <path d="M15.885 3H7.116A5.12 5.12 0 0 0 2 8.116v8.769c.001 1.356.541 2.657 1.5 3.615s2.259 1.498 3.616 1.5h8.769A5.118 5.118 0 0 0 21 16.885V8.116A5.125 5.125 0 0 0 15.885 3zM11.5 16.885a4.383 4.383 0 1 1 0-8.767 4.383 4.383 0 0 1 0 8.767zm5.481-8.77a1.09 1.09 0 0 1-1.013-.677 1.09 1.09 0 0 1 .238-1.194 1.097 1.097 0 1 1 .775 1.871zM14.423 12.5a2.918 2.918 0 0 1-1.805 2.701 2.924 2.924 0 1 1 1.804-2.702z"/>
    </symbol>
  </defs>
</svg>
